<svg xmlns="http://www.w3.org/2000/svg" width="30" height="28" viewBox="0 0 30 28">
    <g fill="#FFF" fill-rule="evenodd">
        <path fill-rule="nonzero" d="M26.484 0H3.516A3.52 3.52 0 0 0 0 3.516V24.14a3.52 3.52 0 0 0 3.516 3.515h22.968A3.52 3.52 0 0 0 30 24.141V3.516A3.52 3.52 0 0 0 26.484 0zM3.516 2.344h22.968c.647 0 1.172.525 1.172 1.172V7.03H2.344V3.516c0-.647.525-1.172 1.172-1.172zm22.968 22.968H3.516a1.173 1.173 0 0 1-1.172-1.171V9.375h25.312v14.766c0 .646-.525 1.172-1.172 1.172zM4.102 4.688a1.172 1.172 0 1 1 2.343 0 1.172 1.172 0 0 1-2.343 0zm4.101 0a1.172 1.172 0 1 1 2.344 0 1.172 1.172 0 0 1-2.344 0z"/>
        <path d="M18.94 12.577l3.167 3.186-3.166 3.185-1.277-1.284.987-.993h-4.749v-1.817h4.749l-.987-.993zM10.166 23.371L7 20.186 10.166 17l1.276 1.284-.986.993h4.748v1.817h-4.748l.986.993z"/>
    </g>
</svg>
