<svg xmlns="http://www.w3.org/2000/svg" width="79" height="28" viewBox="0 0 79 28">
    <g fill="none" fill-rule="evenodd" stroke="#B0B3B8">
        <path stroke-width="1.8" d="M26.188 9.874L23.727 5.63l-3.795 1.495-.406-.32c-.504-.398-.995-.67-2.176-1.253l.005.003-.42-.207-.607-3.888h-4.986l-.597 3.97-.527.172c-.296.098-.596.249-.968.482-.223.14-1.052.702-1.144.763L8.1 6.85l-.396.26-.44-.18-3.211-1.32-2.504 4.316 3.118 2.341v.45c0 .231-.014.349-.079.763a3.559 3.559 0 0 0-.058.588c0 .642.016.843.091 1.066l-.001-.004.202.598-.494.394-2.69 2.14L4.1 22.504l3.794-1.495.407.32c.504.398.995.67 2.058 1.204l.113.046.42.207.585 3.753h5.146l.586-3.753.415-.204.005-.003c1.176-.58 1.667-.852 2.171-1.25l.406-.32.481.19 3.249 1.283 2.515-4.334-3.292-2.256v-.475c0-.231.015-.349.08-.763.042-.269.057-.417.057-.587 0-.643-.015-.844-.09-1.067v.004l-.202-.598.494-.394 2.69-2.14zM1.455 9.98a.623.623 0 0 0 .003-.122l.035.026a.32.32 0 0 0 .027.03l-.065.066zm-.005-.165a.118.118 0 0 0 .004.008zM3.986 22.55zm19.863.082a.29.29 0 0 0-.02.034l.02-.034z"/>
        <circle cx="14" cy="14" r="4.22" stroke-width="1.8"/>
    </g>
</svg>
